# xmcd
#
# Track frame offsets:
# 150
# 15059
# 31256
# 44937
# 66068
# 80785
# 98757
# 109122
# 126491
# 143979
# 152910
# 174834
# 184950
# 196721
# 210678
# 224016
# 242930
# 260529
# 274160
# 289091
#
# Disc length: 4092 seconds
#
#
# Revision: 1
# Processed by: cddbd v1.5.2PL0 Copyright (c) Steve Scherf et al.
# Submitted via: FreeRIP 2.96 
#
DISCID=310ffa14
DTITLE=Harcovnici - Vzpominky na Michala Tucneho a ostatni hity
DYEAR=2001
DGENRE=Country
TTITLE0=Zdam sse ti lepsi nezli jsem
TTITLE1=Muz se srdcem kovboje
TTITLE2=Nakladak
TTITLE3=Kosmickej vandr
TTITLE4=Dvakrat do stejny reky
TTITLE5=Obycejny muz
TTITLE6=Absolutni slepice
TTITLE7=Dlouha cerna limuzina
TTITLE8=Osada U tri klad
TTITLE9=Jak pytlak Riha
TTITLE10=Vsichni jsou uz v Mexiku
TTITLE11=Tak sel cas
TTITLE12=Jen se priznej
TTITLE13=Harmonika
TTITLE14=Tisic mil
TTITLE15=Bejt klukem jako driv
TTITLE16=Cukrarna
TTITLE17=Z blata do louzi
TTITLE18=Dvojnici
TTITLE19=Blazen zarli
EXTD=YEAR: 2001
EXTT0=
EXTT1=
EXTT2=
EXTT3=
EXTT4=
EXTT5=
EXTT6=
EXTT7=
EXTT8=
EXTT9=
EXTT10=
EXTT11=
EXTT12=
EXTT13=
EXTT14=
EXTT15=
EXTT16=
EXTT17=
EXTT18=
EXTT19=
PLAYORDER=
